<svg width="100" height="79" viewBox="0 0 100 79" fill="none" xmlns="http://www.w3.org/2000/svg">
<rect width="100" height="79" fill="white"/>
<g clip-path="url(#clip0_199_352)">
<path d="M79.3906 22.2812H73.7656C73.2062 22.2812 72.6697 22.5034 72.2742 22.8992L70.2598 24.9133L66.3384 24.1291L67.4088 17.7062C67.5611 16.7928 67.0997 15.8867 66.2714 15.4727L57.8339 11.254C57.3336 11.0038 56.7542 10.9626 56.2236 11.1395L52.8337 12.2695L49.1562 10.4306V6.10938C49.1562 4.94444 48.2118 4 47.0469 4H35.7969C35.3034 4 34.8256 4.17297 34.4465 4.48895L26.009 11.5202C25.5282 11.921 25.25 12.5146 25.25 13.1406V22.7436L21.2228 23.7505C20.7747 23.8624 20.3758 24.1185 20.0872 24.4792L14.4622 31.5105C14.163 31.8844 14 32.3492 14 32.8281V42.6719C14 43.2314 14.2223 43.7679 14.6179 44.1633L21.6492 51.1946C22.4343 51.9798 23.694 52.0216 24.5297 51.2906L35.3563 41.8174L39.3125 41.0261V46.8906C39.3125 47.7986 39.8934 48.6046 40.7549 48.8917L42.479 49.4663L39.6132 54.2428C39.274 54.8081 39.2186 55.4994 39.4634 56.1114L42.125 62.7656V69.3906C42.125 69.9265 42.329 70.4424 42.6955 70.8333L46.9143 75.3333C47.3131 75.7587 47.8701 76 48.4531 76H55.4844C56.0581 76 56.6071 75.7663 57.0048 75.3526L64.0361 68.0401C64.4772 67.5813 64.6876 66.948 64.6087 66.3164L63.3488 56.2377L69.4583 51.3501C69.9588 50.9499 70.25 50.344 70.25 49.7031V41.5886L75.5856 40.5216C75.994 40.4399 76.369 40.2392 76.6635 39.9446L80.8822 35.7258C81.2777 35.3304 81.5 34.7939 81.5 34.2344V24.3906C81.5 23.2257 80.5556 22.2812 79.3906 22.2812Z" fill="#071E37"/>
<path d="M75.3675 55.2428L72.555 58.0553C72.031 58.5793 71.8205 59.3396 72.0001 60.0585L74.8126 71.3085C75.1785 72.772 76.9178 73.3896 78.1246 72.4844L83.7496 68.2657C84.1836 67.9401 84.4755 67.46 84.5647 66.9249L85.9709 58.4874C86.1581 57.3644 85.4204 56.2955 84.3039 56.0722L77.2727 54.666C76.5812 54.5277 75.8663 54.7442 75.3675 55.2428Z" fill="#071E37"/>
</g>
<defs>
<clipPath id="clip0_199_352">
<rect width="72" height="72" fill="white" transform="translate(14 4)"/>
</clipPath>
</defs>
</svg>
